<?xml version="1.0" encoding="UTF-8"?>
<!DOCTYPE svg PUBLIC "-//W3C//DTD SVG 1.1//EN" "http://www.w3.org/Graphics/SVG/1.1/DTD/svg11.dtd">
<svg xmlns="http://www.w3.org/2000/svg" version="1.1" viewBox="0 0 2100 2100" width="105" height="105" style="shape-rendering:geometricPrecision; text-rendering:geometricPrecision; image-rendering:optimizeQuality; fill-rule:evenodd; clip-rule:evenodd" xmlns:xlink="http://www.w3.org/1999/xlink">
<g><path fill="#feba07" d="M 1554.5,411.5 C 1607.74,408.749 1660.41,412.916 1712.5,424C 1785.78,441.025 1847.94,476.859 1899,531.5C 1931.39,569.916 1951.05,614.25 1958,664.5C 1963.78,698.27 1967.44,732.27 1969,766.5C 1970.33,807.488 1970.83,848.488 1970.5,889.5C 1864.17,889.5 1757.83,889.5 1651.5,889.5C 1651.69,831.827 1651.19,774.161 1650,716.5C 1649.48,699.103 1648.15,681.77 1646,664.5C 1642.38,629.901 1623.21,615.068 1588.5,620C 1568.74,624.598 1557.58,637.098 1555,657.5C 1552.23,674.725 1550.56,692.058 1550,709.5C 1549.33,936.167 1549.33,1162.83 1550,1389.5C 1550.55,1410.12 1553.22,1430.45 1558,1450.5C 1562.82,1466.98 1573.65,1476.82 1590.5,1480C 1606.46,1483.01 1621.12,1480.01 1634.5,1471C 1646.3,1458.96 1653.14,1444.46 1655,1427.5C 1657.63,1411.27 1659.29,1394.93 1660,1378.5C 1660.5,1316.5 1660.67,1254.5 1660.5,1192.5C 1639.17,1192.5 1617.83,1192.5 1596.5,1192.5C 1596.5,1130.17 1596.5,1067.83 1596.5,1005.5C 1721.17,1005.5 1845.83,1005.5 1970.5,1005.5C 1970.5,1224.83 1970.5,1444.17 1970.5,1663.5C 1903.5,1663.67 1836.5,1663.5 1769.5,1663C 1759.67,1634.18 1749.84,1605.35 1740,1576.5C 1703.5,1640.35 1648.67,1677.19 1575.5,1687C 1478.74,1695.52 1394.74,1667.19 1323.5,1602C 1269.44,1546.35 1239.94,1479.52 1235,1401.5C 1232.21,1367.56 1230.54,1333.56 1230,1299.5C 1229.33,1140.5 1229.33,981.5 1230,822.5C 1230.44,764.532 1234.78,706.865 1243,649.5C 1249.15,604.548 1267.15,565.215 1297,531.5C 1350.12,470.843 1416.62,433.343 1496.5,419C 1515.88,415.662 1535.21,413.162 1554.5,411.5 Z"/></g>
<g><path fill="#feba07" d="M 127.5,437.5 C 265.5,437.5 403.5,437.5 541.5,437.5C 568.244,626.543 595.411,815.543 623,1004.5C 647.25,815.502 671.416,626.502 695.5,437.5C 834.167,437.5 972.833,437.5 1111.5,437.5C 1111.5,846.167 1111.5,1254.83 1111.5,1663.5C 1018.5,1662.56 925.505,1662.23 832.5,1662.5C 832.616,1391.5 832.116,1120.5 831,849.5C 794.586,1120.48 758.42,1391.48 722.5,1662.5C 656.167,1662.5 589.833,1662.5 523.5,1662.5C 484.862,1396.2 446.362,1129.87 408,863.5C 407.5,1129.83 407.333,1396.17 407.5,1662.5C 314.167,1662.5 220.833,1662.5 127.5,1662.5C 127.5,1254.17 127.5,845.833 127.5,437.5 Z"/></g>
</svg>
